<svg width="419" height="572" viewBox="0 0 419 572" fill="none" xmlns="http://www.w3.org/2000/svg">
<path d="M205.5 19.1724L223.034 42.7586V89.931L205.5 113.517L187.966 89.931V42.7586L205.5 19.1724Z" fill="#D3485A"/>
<path d="M244.373 19.1724L260.504 42.7586V89.931L244.373 113.517L228.242 89.931V42.7586L244.373 19.1724Z" fill="#FB86BB"/>
<path d="M166.627 19.1724L182.758 42.7586V89.931L166.627 113.517L150.496 89.931V42.7586L166.627 19.1724Z" fill="#475694"/>
<line x1="166.817" y1="10" x2="166.817" y2="34.8966" stroke="#475694" stroke-width="2"/>
<line x1="205.69" y1="10" x2="205.69" y2="34.8966" stroke="#D3485A" stroke-width="2"/>
<line x1="244.563" y1="10" x2="244.563" y2="34.8966" stroke="#FB86BB" stroke-width="2"/>
<line x1="244.563" y1="99.1035" x2="244.563" y2="124" stroke="#FB86BB" stroke-width="2"/>
<line x1="205.69" y1="99.1035" x2="205.69" y2="124" stroke="#D3485A" stroke-width="2"/>
<line x1="166.817" y1="99.1035" x2="166.817" y2="124" stroke="#475694" stroke-width="2"/>
<path d="M55.4835 143.2C57.6595 143.2 59.7288 143.861 61.6915 145.184C63.6542 146.464 65.2328 148.213 66.4275 150.432C67.6222 152.608 68.2195 154.997 68.2195 157.6C68.2195 160.16 67.6222 162.549 66.4275 164.768C65.2328 166.987 63.6542 168.757 61.6915 170.08C59.7288 171.36 57.6595 172 55.4835 172H44.3475V184.096C44.3475 185.248 44.0062 186.187 43.3235 186.912C42.6408 187.637 41.7448 188 40.6355 188C39.5688 188 38.6942 187.637 38.0115 186.912C37.3288 186.144 36.9875 185.205 36.9875 184.096V147.104C36.9875 145.995 37.3502 145.077 38.0755 144.352C38.8435 143.584 39.7822 143.2 40.8915 143.2H55.4835ZM55.4835 164.704C56.2942 164.704 57.0835 164.363 57.8515 163.68C58.6622 162.997 59.3022 162.123 59.7715 161.056C60.2835 159.947 60.5395 158.795 60.5395 157.6C60.5395 156.405 60.2835 155.275 59.7715 154.208C59.3022 153.099 58.6622 152.224 57.8515 151.584C57.0835 150.901 56.2942 150.56 55.4835 150.56H44.3475V164.704H55.4835ZM92.702 153.12C93.982 153.12 95.0487 153.483 95.902 154.208C96.798 154.933 97.246 155.787 97.246 156.768C97.246 158.091 96.9047 159.093 96.222 159.776C95.5393 160.416 94.7287 160.736 93.79 160.736C93.15 160.736 92.4247 160.587 91.614 160.288C91.486 160.245 91.1873 160.16 90.718 160.032C90.2913 159.904 89.822 159.84 89.31 159.84C88.2007 159.84 87.134 160.181 86.11 160.864C85.086 161.547 84.2327 162.592 83.55 164C82.91 165.365 82.59 167.008 82.59 168.928V184.096C82.59 185.205 82.2273 186.144 81.502 186.912C80.7767 187.637 79.8593 188 78.75 188C77.6407 188 76.7233 187.637 75.998 186.912C75.2727 186.144 74.91 185.205 74.91 184.096V157.664C74.91 156.555 75.2727 155.637 75.998 154.912C76.7233 154.144 77.6407 153.76 78.75 153.76C79.8593 153.76 80.7767 154.144 81.502 154.912C82.2273 155.637 82.59 156.555 82.59 157.664V158.496C83.5713 156.747 84.9793 155.424 86.814 154.528C88.6487 153.589 90.6113 153.12 92.702 153.12ZM134.119 170.912C134.119 174.325 133.351 177.397 131.815 180.128C130.279 182.816 128.167 184.907 125.479 186.4C122.833 187.893 119.911 188.64 116.711 188.64C113.468 188.64 110.524 187.893 107.879 186.4C105.233 184.907 103.143 182.816 101.607 180.128C100.071 177.397 99.3025 174.325 99.3025 170.912C99.3025 167.499 100.071 164.448 101.607 161.76C103.143 159.029 105.233 156.917 107.879 155.424C110.524 153.888 113.468 153.12 116.711 153.12C119.911 153.12 122.833 153.888 125.479 155.424C128.167 156.917 130.279 159.029 131.815 161.76C133.351 164.448 134.119 167.499 134.119 170.912ZM126.439 170.912C126.439 168.821 125.991 166.965 125.095 165.344C124.241 163.68 123.068 162.4 121.575 161.504C120.124 160.608 118.503 160.16 116.711 160.16C114.919 160.16 113.276 160.608 111.783 161.504C110.332 162.4 109.159 163.68 108.263 165.344C107.409 166.965 106.983 168.821 106.983 170.912C106.983 173.003 107.409 174.859 108.263 176.48C109.159 178.101 110.332 179.36 111.783 180.256C113.276 181.152 114.919 181.6 116.711 181.6C118.503 181.6 120.124 181.152 121.575 180.256C123.068 179.36 124.241 178.101 125.095 176.48C125.991 174.859 126.439 173.003 126.439 170.912ZM168.887 153.12C169.996 153.12 170.914 153.483 171.639 154.208C172.364 154.933 172.727 155.872 172.727 157.024V185.504C172.727 190.709 171.106 194.549 167.863 197.024C164.663 199.541 160.588 200.8 155.639 200.8C154.359 200.8 152.588 200.587 150.327 200.16C148.108 199.733 146.53 199.307 145.591 198.88C143.5 197.984 142.455 196.747 142.455 195.168C142.455 194.869 142.519 194.528 142.647 194.144C142.903 193.205 143.33 192.48 143.927 191.968C144.567 191.499 145.25 191.264 145.975 191.264C146.402 191.264 146.807 191.328 147.191 191.456C147.362 191.499 148.407 191.883 150.327 192.608C152.29 193.376 154.06 193.76 155.639 193.76C158.796 193.76 161.143 193.12 162.679 191.84C164.258 190.603 165.047 188.832 165.047 186.528V183.456C164.108 184.779 162.679 185.973 160.759 187.04C158.882 188.107 156.855 188.64 154.679 188.64C151.692 188.64 148.962 187.893 146.487 186.4C144.055 184.864 142.135 182.752 140.727 180.064C139.319 177.376 138.615 174.325 138.615 170.912C138.615 167.499 139.298 164.448 140.663 161.76C142.071 159.029 143.97 156.917 146.359 155.424C148.791 153.888 151.479 153.12 154.423 153.12C156.599 153.12 158.626 153.568 160.503 154.464C162.38 155.36 163.895 156.448 165.047 157.728V157.024C165.047 155.915 165.41 154.997 166.135 154.272C166.86 153.504 167.778 153.12 168.887 153.12ZM155.639 181.6C158.498 181.6 160.823 180.597 162.615 178.592C164.45 176.544 165.367 173.984 165.367 170.912C165.367 167.84 164.45 165.28 162.615 163.232C160.823 161.184 158.498 160.16 155.639 160.16C152.78 160.16 150.455 161.184 148.663 163.232C146.871 165.28 145.975 167.84 145.975 170.912C145.975 173.984 146.871 176.544 148.663 178.592C150.455 180.597 152.78 181.6 155.639 181.6ZM198.827 153.12C200.107 153.12 201.174 153.483 202.027 154.208C202.923 154.933 203.371 155.787 203.371 156.768C203.371 158.091 203.03 159.093 202.347 159.776C201.664 160.416 200.854 160.736 199.915 160.736C199.275 160.736 198.55 160.587 197.739 160.288C197.611 160.245 197.312 160.16 196.843 160.032C196.416 159.904 195.947 159.84 195.435 159.84C194.326 159.84 193.259 160.181 192.235 160.864C191.211 161.547 190.358 162.592 189.675 164C189.035 165.365 188.715 167.008 188.715 168.928V184.096C188.715 185.205 188.352 186.144 187.627 186.912C186.902 187.637 185.984 188 184.875 188C183.766 188 182.848 187.637 182.123 186.912C181.398 186.144 181.035 185.205 181.035 184.096V157.664C181.035 156.555 181.398 155.637 182.123 154.912C182.848 154.144 183.766 153.76 184.875 153.76C185.984 153.76 186.902 154.144 187.627 154.912C188.352 155.637 188.715 156.555 188.715 157.664V158.496C189.696 156.747 191.104 155.424 192.939 154.528C194.774 153.589 196.736 153.12 198.827 153.12ZM238.068 170.08C238.025 171.104 237.62 171.936 236.852 172.576C236.084 173.216 235.188 173.536 234.164 173.536H213.044C213.556 176.053 214.729 178.037 216.564 179.488C218.398 180.896 220.468 181.6 222.772 181.6C224.521 181.6 225.886 181.451 226.868 181.152C227.849 180.811 228.617 180.469 229.172 180.128C229.769 179.744 230.174 179.488 230.388 179.36C231.156 178.976 231.881 178.784 232.564 178.784C233.46 178.784 234.228 179.104 234.868 179.744C235.508 180.384 235.828 181.131 235.828 181.984C235.828 183.136 235.23 184.181 234.036 185.12C232.841 186.101 231.241 186.933 229.236 187.616C227.23 188.299 225.204 188.64 223.156 188.64C219.572 188.64 216.436 187.893 213.748 186.4C211.102 184.907 209.054 182.859 207.604 180.256C206.153 177.611 205.428 174.645 205.428 171.36C205.428 167.691 206.196 164.469 207.732 161.696C209.268 158.923 211.294 156.811 213.812 155.36C216.329 153.867 219.017 153.12 221.876 153.12C224.692 153.12 227.337 153.888 229.812 155.424C232.329 156.96 234.334 159.029 235.828 161.632C237.321 164.235 238.068 167.051 238.068 170.08ZM221.876 160.16C216.926 160.16 214.004 162.485 213.108 167.136H229.876V166.688C229.705 164.896 228.83 163.36 227.252 162.08C225.673 160.8 223.881 160.16 221.876 160.16ZM242.489 182.688C242.105 182.176 241.913 181.536 241.913 180.768C241.913 179.659 242.467 178.72 243.577 177.952C244.174 177.568 244.793 177.376 245.433 177.376C246.329 177.376 247.182 177.781 247.993 178.592C249.273 179.915 250.595 180.896 251.961 181.536C253.369 182.176 255.054 182.496 257.017 182.496C260.345 182.368 262.009 181.109 262.009 178.72C262.009 177.483 261.433 176.544 260.281 175.904C259.171 175.264 257.422 174.624 255.033 173.984C252.558 173.301 250.531 172.619 248.953 171.936C247.417 171.253 246.073 170.229 244.921 168.864C243.811 167.456 243.257 165.579 243.257 163.232C243.257 161.184 243.833 159.413 244.985 157.92C246.179 156.384 247.715 155.211 249.593 154.4C251.513 153.547 253.539 153.12 255.673 153.12C257.849 153.12 260.025 153.525 262.201 154.336C264.377 155.147 266.083 156.341 267.321 157.92C267.875 158.603 268.153 159.371 268.153 160.224C268.153 161.205 267.747 162.016 266.937 162.656C266.339 163.125 265.657 163.36 264.889 163.36C263.95 163.36 263.182 163.061 262.585 162.464C261.817 161.525 260.814 160.779 259.577 160.224C258.382 159.669 257.017 159.392 255.481 159.392C252.238 159.392 250.617 160.565 250.617 162.912C250.617 163.851 250.915 164.619 251.513 165.216C252.11 165.771 252.857 166.219 253.753 166.56C254.691 166.859 255.993 167.243 257.657 167.712C259.961 168.352 261.881 169.013 263.417 169.696C264.953 170.379 266.254 171.424 267.321 172.832C268.387 174.24 268.921 176.096 268.921 178.4C268.921 180.491 268.302 182.325 267.065 183.904C265.827 185.44 264.227 186.613 262.265 187.424C260.345 188.235 258.361 188.64 256.312 188.64C253.497 188.64 250.873 188.171 248.441 187.232C246.009 186.293 244.025 184.779 242.489 182.688ZM311.124 183.008C311.337 183.563 311.444 184.075 311.444 184.544C311.444 185.653 311.081 186.571 310.356 187.296C309.63 187.979 308.798 188.32 307.86 188.32C307.092 188.32 306.388 188.085 305.748 187.616C305.15 187.147 304.681 186.507 304.34 185.696L301.012 177.952H281.94L278.612 185.76C278.313 186.571 277.844 187.211 277.204 187.68C276.606 188.107 275.945 188.32 275.22 188.32C274.11 188.32 273.257 188.021 272.66 187.424C272.105 186.827 271.828 186.016 271.828 184.992C271.828 184.608 271.892 184.203 272.02 183.776L287.956 145.504C288.297 144.651 288.809 143.989 289.492 143.52C290.174 143.051 290.942 142.859 291.796 142.944C292.564 142.944 293.268 143.179 293.908 143.648C294.59 144.075 295.081 144.693 295.38 145.504L311.124 183.008ZM297.876 170.592L291.412 155.616L285.076 170.592H297.876ZM333.951 153.12C336.895 153.12 339.561 153.888 341.951 155.424C344.34 156.917 346.217 159.008 347.583 161.696C348.991 164.384 349.694 167.435 349.694 170.848C349.694 174.261 349.012 177.333 347.647 180.064C346.281 182.752 344.404 184.864 342.015 186.4C339.668 187.893 337.065 188.64 334.207 188.64C332.159 188.64 330.217 188.235 328.383 187.424C326.591 186.571 325.097 185.547 323.903 184.352V196.896C323.903 198.005 323.54 198.923 322.815 199.648C322.089 200.416 321.172 200.8 320.062 200.8C318.953 200.8 318.036 200.437 317.311 199.712C316.585 198.987 316.223 198.048 316.223 196.896V157.664C316.223 156.555 316.585 155.637 317.311 154.912C318.036 154.144 318.953 153.76 320.062 153.76C321.172 153.76 322.089 154.144 322.815 154.912C323.54 155.637 323.903 156.555 323.903 157.664V157.92C324.927 156.64 326.356 155.531 328.191 154.592C330.025 153.611 331.945 153.12 333.951 153.12ZM332.991 181.6C335.721 181.6 337.961 180.576 339.711 178.528C341.46 176.48 342.335 173.92 342.335 170.848C342.335 167.776 341.46 165.237 339.711 163.232C338.004 161.184 335.764 160.16 332.991 160.16C330.217 160.16 327.956 161.184 326.207 163.232C324.457 165.237 323.583 167.776 323.583 170.848C323.583 173.92 324.457 176.48 326.207 178.528C327.956 180.576 330.217 181.6 332.991 181.6ZM373.826 153.12C376.77 153.12 379.436 153.888 381.826 155.424C384.215 156.917 386.092 159.008 387.458 161.696C388.866 164.384 389.569 167.435 389.569 170.848C389.569 174.261 388.887 177.333 387.522 180.064C386.156 182.752 384.279 184.864 381.89 186.4C379.543 187.893 376.94 188.64 374.082 188.64C372.034 188.64 370.092 188.235 368.258 187.424C366.466 186.571 364.972 185.547 363.778 184.352V196.896C363.778 198.005 363.415 198.923 362.69 199.648C361.964 200.416 361.047 200.8 359.938 200.8C358.828 200.8 357.911 200.437 357.186 199.712C356.46 198.987 356.098 198.048 356.098 196.896V157.664C356.098 156.555 356.46 155.637 357.186 154.912C357.911 154.144 358.828 153.76 359.938 153.76C361.047 153.76 361.964 154.144 362.69 154.912C363.415 155.637 363.778 156.555 363.778 157.664V157.92C364.802 156.64 366.231 155.531 368.066 154.592C369.9 153.611 371.82 153.12 373.826 153.12ZM372.866 181.6C375.596 181.6 377.836 180.576 379.586 178.528C381.335 176.48 382.21 173.92 382.21 170.848C382.21 167.776 381.335 165.237 379.586 163.232C377.879 161.184 375.639 160.16 372.866 160.16C370.092 160.16 367.831 161.184 366.082 163.232C364.332 165.237 363.458 167.776 363.458 170.848C363.458 173.92 364.332 176.48 366.082 178.528C367.831 180.576 370.092 181.6 372.866 181.6Z" fill="#3C3B3E"/>
</svg>
